<mxfile host="app.diagrams.net" modified="2023-07-03T11:11:24.601Z" agent="Mozilla/5.0 (Windows NT 10.0; Win64; x64) AppleWebKit/537.36 (KHTML, like Gecko) Chrome/104.0.0.0 Safari/537.36" version="21.5.2" etag="fQsMgjBpgEoPyW8Sk9a4" type="github">
  <diagram name="第 1 页" id="uVQju4d6gTZyAh3X1MpB">
    <mxGraphModel>
      <root>
        <mxCell id="0" />
        <mxCell id="1" parent="0" />
      </root>
    </mxGraphModel>
  </diagram>
</mxfile>
